<svg xmlns="http://www.w3.org/2000/svg" width="61" height="71" viewBox="0 0 61 71">
  <defs>
    <style>
      .cls-1 {
        fill: #5328fe;
        fill-rule: evenodd;
        opacity: 0.4;
      }
    </style>
  </defs>
  <path id="decoration" class="cls-1" d="M531,330a4,4,0,1,1-4,4A4,4,0,0,1,531,330Zm18,0a4,4,0,1,1-4,4A4,4,0,0,1,549,330Zm18,0a4,4,0,1,1-4,4A4,4,0,0,1,567,330Zm18,0a4,4,0,1,1-4,4A4,4,0,0,1,585,330Zm18,0a4,4,0,1,1-4,4A4,4,0,0,1,603,330Zm18,0a4,4,0,1,1-4,4A4,4,0,0,1,621,330Zm18,0a4,4,0,1,1-4,4A4,4,0,0,1,639,330Zm18,0a4,4,0,1,1-4,4A4,4,0,0,1,657,330ZM531,348a4,4,0,1,1-4,4A4,4,0,0,1,531,348Zm18,0a4,4,0,1,1-4,4A4,4,0,0,1,549,348Zm18,0a4,4,0,1,1-4,4A4,4,0,0,1,567,348Zm18,0a4,4,0,1,1-4,4A4,4,0,0,1,585,348Zm18,0a4,4,0,1,1-4,4A4,4,0,0,1,603,348Zm18,0a4,4,0,1,1-4,4A4,4,0,0,1,621,348Zm18,0a4,4,0,1,1-4,4A4,4,0,0,1,639,348Zm18,0a4,4,0,1,1-4,4A4,4,0,0,1,657,348ZM531,366a4,4,0,1,1-4,4A4,4,0,0,1,531,366Zm18,0a4,4,0,1,1-4,4A4,4,0,0,1,549,366Zm18,0a4,4,0,1,1-4,4A4,4,0,0,1,567,366Zm18,0a4,4,0,1,1-4,4A4,4,0,0,1,585,366Zm18,0a4,4,0,1,1-4,4A4,4,0,0,1,603,366Zm18,0a4,4,0,1,1-4,4A4,4,0,0,1,621,366Zm18,0a4,4,0,1,1-4,4A4,4,0,0,1,639,366Zm18,0a4,4,0,1,1-4,4A4,4,0,0,1,657,366ZM531,384a4,4,0,1,1-4,4A4,4,0,0,1,531,384Zm18,0a4,4,0,1,1-4,4A4,4,0,0,1,549,384Zm18,0a4,4,0,1,1-4,4A4,4,0,0,1,567,384Zm18,0a4,4,0,1,1-4,4A4,4,0,0,1,585,384Zm18,0a4,4,0,1,1-4,4A4,4,0,0,1,603,384Zm18,0a4,4,0,1,1-4,4A4,4,0,0,1,621,384Zm18,0a4,4,0,1,1-4,4A4,4,0,0,1,639,384Zm18,0a4,4,0,1,1-4,4A4,4,0,0,1,657,384ZM531,402a4,4,0,1,1-4,4A4,4,0,0,1,531,402Zm18,0a4,4,0,1,1-4,4A4,4,0,0,1,549,402Zm18,0a4,4,0,1,1-4,4A4,4,0,0,1,567,402Zm18,0a4,4,0,1,1-4,4A4,4,0,0,1,585,402Zm18,0a4,4,0,1,1-4,4A4,4,0,0,1,603,402Zm18,0a4,4,0,1,1-4,4A4,4,0,0,1,621,402Zm18,0a4,4,0,1,1-4,4A4,4,0,0,1,639,402Zm18,0a4,4,0,1,1-4,4A4,4,0,0,1,657,402ZM531,420a4,4,0,1,1-4,4A4,4,0,0,1,531,420Zm18,0a4,4,0,1,1-4,4A4,4,0,0,1,549,420Zm18,0a4,4,0,1,1-4,4A4,4,0,0,1,567,420Zm18,0a4,4,0,1,1-4,4A4,4,0,0,1,585,420Zm18,0a4,4,0,1,1-4,4A4,4,0,0,1,603,420Zm18,0a4,4,0,1,1-4,4A4,4,0,0,1,621,420Zm18,0a4,4,0,1,1-4,4A4,4,0,0,1,639,420Zm18,0a4,4,0,1,1-4,4A4,4,0,0,1,657,420ZM531,438a4,4,0,1,1-4,4A4,4,0,0,1,531,438Zm18,0a4,4,0,1,1-4,4A4,4,0,0,1,549,438Zm18,0a4,4,0,1,1-4,4A4,4,0,0,1,567,438Zm18,0a4,4,0,1,1-4,4A4,4,0,0,1,585,438Zm18,0a4,4,0,1,1-4,4A4,4,0,0,1,603,438Zm18,0a4,4,0,1,1-4,4A4,4,0,0,1,621,438Zm18,0a4,4,0,1,1-4,4A4,4,0,0,1,639,438Zm18,0a4,4,0,1,1-4,4A4,4,0,0,1,657,438ZM531,456a4,4,0,1,1-4,4A4,4,0,0,1,531,456Zm18,0a4,4,0,1,1-4,4A4,4,0,0,1,549,456Zm18,0a4,4,0,1,1-4,4A4,4,0,0,1,567,456Zm18,0a4,4,0,1,1-4,4A4,4,0,0,1,585,456Zm18,0a4,4,0,1,1-4,4A4,4,0,0,1,603,456Zm18,0a4,4,0,1,1-4,4A4,4,0,0,1,621,456Zm18,0a4,4,0,1,1-4,4A4,4,0,0,1,639,456Zm18,0a4,4,0,1,1-4,4A4,4,0,0,1,657,456Zm18-126a4,4,0,1,1-4,4A4,4,0,0,1,675,330Zm18,0a4,4,0,1,1-4,4A4,4,0,0,1,693,330Zm18,0a4,4,0,1,1-4,4A4,4,0,0,1,711,330Zm-36,18a4,4,0,1,1-4,4A4,4,0,0,1,675,348Zm18,0a4,4,0,1,1-4,4A4,4,0,0,1,693,348Zm18,0a4,4,0,1,1-4,4A4,4,0,0,1,711,348Zm-36,18a4,4,0,1,1-4,4A4,4,0,0,1,675,366Zm18,0a4,4,0,1,1-4,4A4,4,0,0,1,693,366Zm18,0a4,4,0,1,1-4,4A4,4,0,0,1,711,366Zm-36,18a4,4,0,1,1-4,4A4,4,0,0,1,675,384Zm18,0a4,4,0,1,1-4,4A4,4,0,0,1,693,384Zm18,0a4,4,0,1,1-4,4A4,4,0,0,1,711,384Zm-36,18a4,4,0,1,1-4,4A4,4,0,0,1,675,402Zm18,0a4,4,0,1,1-4,4A4,4,0,0,1,693,402Zm18,0a4,4,0,1,1-4,4A4,4,0,0,1,711,402Zm-36,18a4,4,0,1,1-4,4A4,4,0,0,1,675,420Zm18,0a4,4,0,1,1-4,4A4,4,0,0,1,693,420Zm18,0a4,4,0,1,1-4,4A4,4,0,0,1,711,420Zm-36,18a4,4,0,1,1-4,4A4,4,0,0,1,675,438Zm18,0a4,4,0,1,1-4,4A4,4,0,0,1,693,438Zm18,0a4,4,0,1,1-4,4A4,4,0,0,1,711,438Zm-36,18a4,4,0,1,1-4,4A4,4,0,0,1,675,456Zm18,0a4,4,0,1,1-4,4A4,4,0,0,1,693,456Zm18,0a4,4,0,1,1-4,4A4,4,0,0,1,711,456ZM531,276a4,4,0,1,1-4,4A4,4,0,0,1,531,276Zm18,0a4,4,0,1,1-4,4A4,4,0,0,1,549,276Zm18,0a4,4,0,1,1-4,4A4,4,0,0,1,567,276Zm18,0a4,4,0,1,1-4,4A4,4,0,0,1,585,276Zm18,0a4,4,0,1,1-4,4A4,4,0,0,1,603,276Zm18,0a4,4,0,1,1-4,4A4,4,0,0,1,621,276Zm18,0a4,4,0,1,1-4,4A4,4,0,0,1,639,276Zm18,0a4,4,0,1,1-4,4A4,4,0,0,1,657,276ZM531,294a4,4,0,1,1-4,4A4,4,0,0,1,531,294Zm18,0a4,4,0,1,1-4,4A4,4,0,0,1,549,294Zm18,0a4,4,0,1,1-4,4A4,4,0,0,1,567,294Zm18,0a4,4,0,1,1-4,4A4,4,0,0,1,585,294Zm18,0a4,4,0,1,1-4,4A4,4,0,0,1,603,294Zm18,0a4,4,0,1,1-4,4A4,4,0,0,1,621,294Zm18,0a4,4,0,1,1-4,4A4,4,0,0,1,639,294Zm18,0a4,4,0,1,1-4,4A4,4,0,0,1,657,294ZM531,312a4,4,0,1,1-4,4A4,4,0,0,1,531,312Zm18,0a4,4,0,1,1-4,4A4,4,0,0,1,549,312Zm18,0a4,4,0,1,1-4,4A4,4,0,0,1,567,312Zm18,0a4,4,0,1,1-4,4A4,4,0,0,1,585,312Zm18,0a4,4,0,1,1-4,4A4,4,0,0,1,603,312Zm18,0a4,4,0,1,1-4,4A4,4,0,0,1,621,312Zm18,0a4,4,0,1,1-4,4A4,4,0,0,1,639,312Zm18,0a4,4,0,1,1-4,4A4,4,0,0,1,657,312Zm18-36a4,4,0,1,1-4,4A4,4,0,0,1,675,276Zm18,0a4,4,0,1,1-4,4A4,4,0,0,1,693,276Zm18,0a4,4,0,1,1-4,4A4,4,0,0,1,711,276Zm-36,18a4,4,0,1,1-4,4A4,4,0,0,1,675,294Zm18,0a4,4,0,1,1-4,4A4,4,0,0,1,693,294Zm18,0a4,4,0,1,1-4,4A4,4,0,0,1,711,294Zm-36,18a4,4,0,1,1-4,4A4,4,0,0,1,675,312Zm18,0a4,4,0,1,1-4,4A4,4,0,0,1,693,312Zm18,0a4,4,0,1,1-4,4A4,4,0,0,1,711,312ZM58,54a4,4,0,1,1-4,4A4,4,0,0,1,58,54ZM4,0A4,4,0,1,1,0,4,4,4,0,0,1,4,0ZM22,0a4,4,0,1,1-4,4A4,4,0,0,1,22,0ZM40,0a4,4,0,1,1-4,4A4,4,0,0,1,40,0ZM58,0a4,4,0,1,1-4,4A4,4,0,0,1,58,0ZM22,18a4,4,0,1,1-4,4A4,4,0,0,1,22,18Zm18,0a4,4,0,1,1-4,4A4,4,0,0,1,40,18Zm18,0a4,4,0,1,1-4,4A4,4,0,0,1,58,18ZM40,36a4,4,0,1,1-4,4A4,4,0,0,1,40,36Zm18,0a4,4,0,1,1-4,4A4,4,0,0,1,58,36Z"/>
</svg>
