<svg xmlns="http://www.w3.org/2000/svg" width="195" height="193" viewBox="0 0 195 193">
  <metadata><?xpacket begin="﻿" id="W5M0MpCehiHzreSzNTczkc9d"?>
<x:xmpmeta xmlns:x="adobe:ns:meta/" x:xmptk="Adobe XMP Core 5.6-c140 79.160451, 2017/05/06-01:08:21        ">
   <rdf:RDF xmlns:rdf="http://www.w3.org/1999/02/22-rdf-syntax-ns#">
      <rdf:Description rdf:about=""/>
   </rdf:RDF>
</x:xmpmeta>
                                                                                                    
                                                                                                    
                                                                                                    
                                                                                                    
                                                                                                    
                                                                                                    
                                                                                                    
                                                                                                    
                                                                                                    
                                                                                                    
                                                                                                    
                                                                                                    
                                                                                                    
                                                                                                    
                                                                                                    
                                                                                                    
                                                                                                    
                                                                                                    
                                                                                                    
                                                                                                    
                           
<?xpacket end="w"?></metadata>
<defs>
    <style>
      .cls-1 {
        fill: #5328fe;
        fill-rule: evenodd;
        opacity: 0.4;
      }
    </style>
  </defs>
  <path id="decoration" class="cls-1" d="M11,59a4,4,0,1,1-4,4A4,4,0,0,1,11,59Zm18,0a4,4,0,1,1-4,4A4,4,0,0,1,29,59Zm18,0a4,4,0,1,1-4,4A4,4,0,0,1,47,59Zm18,0a4,4,0,1,1-4,4A4,4,0,0,1,65,59Zm18,0a4,4,0,1,1-4,4A4,4,0,0,1,83,59Zm18,0a4,4,0,1,1-4,4A4,4,0,0,1,101,59Zm18,0a4,4,0,1,1-4,4A4,4,0,0,1,119,59Zm18,0a4,4,0,1,1-4,4A4,4,0,0,1,137,59ZM11,77a4,4,0,1,1-4,4A4,4,0,0,1,11,77Zm18,0a4,4,0,1,1-4,4A4,4,0,0,1,29,77Zm18,0a4,4,0,1,1-4,4A4,4,0,0,1,47,77Zm18,0a4,4,0,1,1-4,4A4,4,0,0,1,65,77Zm18,0a4,4,0,1,1-4,4A4,4,0,0,1,83,77Zm18,0a4,4,0,1,1-4,4A4,4,0,0,1,101,77Zm18,0a4,4,0,1,1-4,4A4,4,0,0,1,119,77Zm18,0a4,4,0,1,1-4,4A4,4,0,0,1,137,77ZM11,95a4,4,0,1,1-4,4A4,4,0,0,1,11,95Zm18,0a4,4,0,1,1-4,4A4,4,0,0,1,29,95Zm18,0a4,4,0,1,1-4,4A4,4,0,0,1,47,95Zm18,0a4,4,0,1,1-4,4A4,4,0,0,1,65,95Zm18,0a4,4,0,1,1-4,4A4,4,0,0,1,83,95Zm18,0a4,4,0,1,1-4,4A4,4,0,0,1,101,95Zm18,0a4,4,0,1,1-4,4A4,4,0,0,1,119,95Zm18,0a4,4,0,1,1-4,4A4,4,0,0,1,137,95ZM11,113a4,4,0,1,1-4,4A4,4,0,0,1,11,113Zm18,0a4,4,0,1,1-4,4A4,4,0,0,1,29,113Zm18,0a4,4,0,1,1-4,4A4,4,0,0,1,47,113Zm18,0a4,4,0,1,1-4,4A4,4,0,0,1,65,113Zm18,0a4,4,0,1,1-4,4A4,4,0,0,1,83,113Zm18,0a4,4,0,1,1-4,4A4,4,0,0,1,101,113Zm18,0a4,4,0,1,1-4,4A4,4,0,0,1,119,113Zm18,0a4,4,0,1,1-4,4A4,4,0,0,1,137,113ZM11,131a4,4,0,1,1-4,4A4,4,0,0,1,11,131Zm18,0a4,4,0,1,1-4,4A4,4,0,0,1,29,131Zm18,0a4,4,0,1,1-4,4A4,4,0,0,1,47,131Zm18,0a4,4,0,1,1-4,4A4,4,0,0,1,65,131Zm18,0a4,4,0,1,1-4,4A4,4,0,0,1,83,131Zm18,0a4,4,0,1,1-4,4A4,4,0,0,1,101,131Zm18,0a4,4,0,1,1-4,4A4,4,0,0,1,119,131Zm18,0a4,4,0,1,1-4,4A4,4,0,0,1,137,131ZM11,149a4,4,0,1,1-4,4A4,4,0,0,1,11,149Zm18,0a4,4,0,1,1-4,4A4,4,0,0,1,29,149Zm18,0a4,4,0,1,1-4,4A4,4,0,0,1,47,149Zm18,0a4,4,0,1,1-4,4A4,4,0,0,1,65,149Zm18,0a4,4,0,1,1-4,4A4,4,0,0,1,83,149Zm18,0a4,4,0,1,1-4,4A4,4,0,0,1,101,149Zm18,0a4,4,0,1,1-4,4A4,4,0,0,1,119,149Zm18,0a4,4,0,1,1-4,4A4,4,0,0,1,137,149ZM11,167a4,4,0,1,1-4,4A4,4,0,0,1,11,167Zm18,0a4,4,0,1,1-4,4A4,4,0,0,1,29,167Zm18,0a4,4,0,1,1-4,4A4,4,0,0,1,47,167Zm18,0a4,4,0,1,1-4,4A4,4,0,0,1,65,167Zm18,0a4,4,0,1,1-4,4A4,4,0,0,1,83,167Zm18,0a4,4,0,1,1-4,4A4,4,0,0,1,101,167Zm18,0a4,4,0,1,1-4,4A4,4,0,0,1,119,167Zm18,0a4,4,0,1,1-4,4A4,4,0,0,1,137,167ZM11,185a4,4,0,1,1-4,4A4,4,0,0,1,11,185Zm18,0a4,4,0,1,1-4,4A4,4,0,0,1,29,185Zm18,0a4,4,0,1,1-4,4A4,4,0,0,1,47,185Zm18,0a4,4,0,1,1-4,4A4,4,0,0,1,65,185Zm18,0a4,4,0,1,1-4,4A4,4,0,0,1,83,185Zm18,0a4,4,0,1,1-4,4A4,4,0,0,1,101,185Zm18,0a4,4,0,1,1-4,4A4,4,0,0,1,119,185Zm18,0a4,4,0,1,1-4,4A4,4,0,0,1,137,185ZM155,59a4,4,0,1,1-4,4A4,4,0,0,1,155,59Zm18,0a4,4,0,1,1-4,4A4,4,0,0,1,173,59Zm18,0a4,4,0,1,1-4,4A4,4,0,0,1,191,59ZM155,77a4,4,0,1,1-4,4A4,4,0,0,1,155,77Zm18,0a4,4,0,1,1-4,4A4,4,0,0,1,173,77Zm18,0a4,4,0,1,1-4,4A4,4,0,0,1,191,77ZM155,95a4,4,0,1,1-4,4A4,4,0,0,1,155,95Zm18,0a4,4,0,1,1-4,4A4,4,0,0,1,173,95Zm18,0a4,4,0,1,1-4,4A4,4,0,0,1,191,95Zm-36,18a4,4,0,1,1-4,4A4,4,0,0,1,155,113Zm18,0a4,4,0,1,1-4,4A4,4,0,0,1,173,113Zm18,0a4,4,0,1,1-4,4A4,4,0,0,1,191,113Zm-36,18a4,4,0,1,1-4,4A4,4,0,0,1,155,131Zm18,0a4,4,0,1,1-4,4A4,4,0,0,1,173,131Zm18,0a4,4,0,1,1-4,4A4,4,0,0,1,191,131Zm-36,18a4,4,0,1,1-4,4A4,4,0,0,1,155,149Zm18,0a4,4,0,1,1-4,4A4,4,0,0,1,173,149Zm18,0a4,4,0,1,1-4,4A4,4,0,0,1,191,149Zm-36,18a4,4,0,1,1-4,4A4,4,0,0,1,155,167Zm18,0a4,4,0,1,1-4,4A4,4,0,0,1,173,167Zm18,0a4,4,0,1,1-4,4A4,4,0,0,1,191,167Zm-36,18a4,4,0,1,1-4,4A4,4,0,0,1,155,185Zm18,0a4,4,0,1,1-4,4A4,4,0,0,1,173,185Zm18,0a4,4,0,1,1-4,4A4,4,0,0,1,191,185ZM11,5A4,4,0,1,1,7,9,4,4,0,0,1,11,5ZM29,5a4,4,0,1,1-4,4A4,4,0,0,1,29,5ZM47,5a4,4,0,1,1-4,4A4,4,0,0,1,47,5ZM65,5a4,4,0,1,1-4,4A4,4,0,0,1,65,5ZM83,5a4,4,0,1,1-4,4A4,4,0,0,1,83,5Zm18,0a4,4,0,1,1-4,4A4,4,0,0,1,101,5Zm18,0a4,4,0,1,1-4,4A4,4,0,0,1,119,5Zm18,0a4,4,0,1,1-4,4A4,4,0,0,1,137,5ZM11,23a4,4,0,1,1-4,4A4,4,0,0,1,11,23Zm18,0a4,4,0,1,1-4,4A4,4,0,0,1,29,23Zm18,0a4,4,0,1,1-4,4A4,4,0,0,1,47,23Zm18,0a4,4,0,1,1-4,4A4,4,0,0,1,65,23Zm18,0a4,4,0,1,1-4,4A4,4,0,0,1,83,23Zm18,0a4,4,0,1,1-4,4A4,4,0,0,1,101,23Zm18,0a4,4,0,1,1-4,4A4,4,0,0,1,119,23Zm18,0a4,4,0,1,1-4,4A4,4,0,0,1,137,23ZM11,41a4,4,0,1,1-4,4A4,4,0,0,1,11,41Zm18,0a4,4,0,1,1-4,4A4,4,0,0,1,29,41Zm18,0a4,4,0,1,1-4,4A4,4,0,0,1,47,41Zm18,0a4,4,0,1,1-4,4A4,4,0,0,1,65,41Zm18,0a4,4,0,1,1-4,4A4,4,0,0,1,83,41Zm18,0a4,4,0,1,1-4,4A4,4,0,0,1,101,41Zm18,0a4,4,0,1,1-4,4A4,4,0,0,1,119,41Zm18,0a4,4,0,1,1-4,4A4,4,0,0,1,137,41ZM155,5a4,4,0,1,1-4,4A4,4,0,0,1,155,5Zm18,0a4,4,0,1,1-4,4A4,4,0,0,1,173,5Zm18,0a4,4,0,1,1-4,4A4,4,0,0,1,191,5ZM155,23a4,4,0,1,1-4,4A4,4,0,0,1,155,23Zm18,0a4,4,0,1,1-4,4A4,4,0,0,1,173,23Zm18,0a4,4,0,1,1-4,4A4,4,0,0,1,191,23ZM155,41a4,4,0,1,1-4,4A4,4,0,0,1,155,41Zm18,0a4,4,0,1,1-4,4A4,4,0,0,1,173,41Zm18,0a4,4,0,1,1-4,4A4,4,0,0,1,191,41ZM-462-217a4,4,0,0,1,4,4,4,4,0,0,1-4,4,4,4,0,0,1-4-4A4,4,0,0,1-462-217Zm-54-54a4,4,0,0,1,4,4,4,4,0,0,1-4,4,4,4,0,0,1-4-4A4,4,0,0,1-516-271Zm18,0a4,4,0,0,1,4,4,4,4,0,0,1-4,4,4,4,0,0,1-4-4A4,4,0,0,1-498-271Zm18,0a4,4,0,0,1,4,4,4,4,0,0,1-4,4,4,4,0,0,1-4-4A4,4,0,0,1-480-271Zm18,0a4,4,0,0,1,4,4,4,4,0,0,1-4,4,4,4,0,0,1-4-4A4,4,0,0,1-462-271Zm-36,18a4,4,0,0,1,4,4,4,4,0,0,1-4,4,4,4,0,0,1-4-4A4,4,0,0,1-498-253Zm18,0a4,4,0,0,1,4,4,4,4,0,0,1-4,4,4,4,0,0,1-4-4A4,4,0,0,1-480-253Zm18,0a4,4,0,0,1,4,4,4,4,0,0,1-4,4,4,4,0,0,1-4-4A4,4,0,0,1-462-253Zm-18,18a4,4,0,0,1,4,4,4,4,0,0,1-4,4,4,4,0,0,1-4-4A4,4,0,0,1-480-235Zm18,0a4,4,0,0,1,4,4,4,4,0,0,1-4,4,4,4,0,0,1-4-4A4,4,0,0,1-462-235Z"/>
</svg>
