<svg xmlns="http://www.w3.org/2000/svg" viewBox="0 0 130 46.463">
  <g fill="#fff" style="isolation:isolate">
    <path d="M72.834 20.75q.174.87 1.624 1.16a2.61 2.61 0 0 0 1.1 0c.27.078.464.039.58-.116a.139.139 0 0 0 .174.087.137.137 0 0 0 .116-.145 2.161 2.161 0 0 0 .522-.145q.4-.144.29-.261a.41.41 0 0 0 .348-.348 1.321 1.321 0 0 0 .348-1.334 2.979 2.979 0 0 1 .174.29.657.657 0 0 1 .058.29 1.328 1.328 0 0 0-.261-.986 2.142 2.142 0 0 0-.87-.638 4.052 4.052 0 0 0-1.218-.29 3.715 3.715 0 0 0-1.3.116.7.7 0 0 0-.58.174q-.291.232-.406.348c-.155 0-.232.058-.232.174q-.291.058-.319.2a1.306 1.306 0 0 0-.029.261l-.058.058a.731.731 0 0 0-.174.348.485.485 0 0 0 .058.406c-.081.196-.061.313.055.351zm2.349-2.2a3.251 3.251 0 0 1 .957.029 3.9 3.9 0 0 1 1.015.319 1.243 1.243 0 0 1 .667.812 2.577 2.577 0 0 0-.986-.849 3.737 3.737 0 0 0-2.146-.2 1.32 1.32 0 0 1 .493-.115zm-55.956 8.145a1.618 1.618 0 0 0-.841.174 1.241 1.241 0 0 0-.58.551 8.088 8.088 0 0 0-.435.9q-.261.609-.609 1.305-.174 0-.174.348a.489.489 0 0 0-.2.232.318.318 0 0 0-.029.29.515.515 0 0 0-.145.29.524.524 0 0 1-.145.29 1.8 1.8 0 0 0-.58 1.1q-.117-.057-.435.493a5.177 5.177 0 0 0-.435.9l-.058.058c-.078-.038-.155 0-.232.116a.711.711 0 0 0-.116.406 7.8 7.8 0 0 1-.725.841l-.725.725a1.317 1.317 0 0 0-.667.348 5.06 5.06 0 0 0-.551.58q-.117-.174-.58.145t-.986.609c-.116.039-.242.078-.377.116a1.37 1.37 0 0 1-.377.058.349.349 0 0 0-.348-.058 1.3 1.3 0 0 0-.406.174H8.12a1.226 1.226 0 0 0-.609-.406 1 1 0 0 0-.551-.058l-.232-.232a2.332 2.332 0 0 0 .725-.261 1.012 1.012 0 0 0 .493-.493.051.051 0 0 0 .058-.058.144.144 0 0 0 .232 0 .912.912 0 0 0 .174-.232 1.433 1.433 0 0 1 .58-.232.887.887 0 0 0 .638-.638c.27-.193.493-.348.667-.464a.789.789 0 0 0 .319-.58 5.948 5.948 0 0 0 .551-.638q.261-.348.551-.7.116.059.377-.261a1.193 1.193 0 0 0 .261-.783c.27-.077.348-.212.232-.406a2.791 2.791 0 0 0 .232-.319c.116-.174.232-.357.348-.551a1.821 1.821 0 0 0 .232-.58.7.7 0 0 0 0-.406 5.807 5.807 0 0 0 .261-.9c.058-.29.106-.589.145-.9.077 0 .116-.058.116-.174a.4.4 0 0 0-.116-.29v-.058a.435.435 0 0 0 .145-.435c-.02-.212-.068-.319-.145-.319q-.117-.579-.174-.812a.848.848 0 0 0-.145-.87 1.427 1.427 0 0 0-.493-.464.238.238 0 0 0-.058-.261.359.359 0 0 0-.29-.145q-.174-.464-.435-.493a1.182 1.182 0 0 1-.377-.087q-.059-.29-.406-.232a.627.627 0 0 0-.464-.377 1.225 1.225 0 0 0-.58-.029 7.1 7.1 0 0 0-7.6 2.958.359.359 0 0 0-.377.261q-.087.261-.2.551a2.647 2.647 0 0 0-.493.7 4.806 4.806 0 0 0-.319.812.33.33 0 0 1-.116.232.631.631 0 0 0-.174.58 1.17 1.17 0 0 0-.493.754 4.75 4.75 0 0 0-.087.87c-.038.194-.077.358-.116.493s-.077.3-.116.493a12.978 12.978 0 0 0-.29 2.639 6.281 6.281 0 0 0 .406 2.291 8.967 8.967 0 0 1-.174-2.233 13.078 13.078 0 0 1 .29-2.117 8.852 8.852 0 0 0-.2 2.523 8.077 8.077 0 0 0 .2 1.537.118.118 0 0 0 .029.087.118.118 0 0 1 .029.087.452.452 0 0 0 .058.174l-.058.174a.555.555 0 0 0 .116.58 6.321 6.321 0 0 0 .464.522 1.339 1.339 0 0 1 .174.29c0 .194.078.29.232.29a.453.453 0 0 0 .145.464 1.725 1.725 0 0 0 .493.29 7.2 7.2 0 0 0 2.7 1.711 7.4 7.4 0 0 0 3.277.377 2.059 2.059 0 0 0 .841.058.98.98 0 0 0 .667-.348h.116a.371.371 0 0 0 .29 0q.174-.057.174-.174a2.656 2.656 0 0 0 .754-.145 5.146 5.146 0 0 0 .9-.377 5.743 5.743 0 0 0 .812-.522 2.166 2.166 0 0 0 .551-.58 2.891 2.891 0 0 0 .986-.609 1.337 1.337 0 0 0 .58-.957 2.7 2.7 0 0 0 .638-.551q.405-.435.348-.667.463-.116.348-.522h.058c.193 0 .251-.1.174-.29a5.888 5.888 0 0 0 .348-.58 1.707 1.707 0 0 0 .406-.464 1.181 1.181 0 0 0 .232-.638 1.062 1.062 0 0 1 .261-.29.307.307 0 0 0 .087-.406 3.106 3.106 0 0 0 .406-.551.735.735 0 0 0 .116-.667q.638-1.392 1.131-2.436t.609-1.334q.174-.638-.087-.9a1.048 1.048 0 0 0-.701-.287zM8.381 33.452q-.552.465-1.131.9t-1.566 1.072a.869.869 0 0 1-.174-.232q.927-.522 1.537-.9a11.985 11.985 0 0 0 1.189-.841 6.233 6.233 0 0 0 .87-.812 2.862 2.862 0 0 1-.725.813zm-2.987 1.392l-.058-.058q.057-.057.957-.58a7.74 7.74 0 0 0 1.595-1.218 3.335 3.335 0 0 1-1.16 1.073q-.87.551-1.334.783zm3.8-7.975a1.359 1.359 0 0 1 .928.261 1.253 1.253 0 0 1 .435.928 3.357 3.357 0 0 1-.464 1.682 3.5 3.5 0 0 0 .232-1.856 1.078 1.078 0 0 0-.609-.754 1.432 1.432 0 0 0-.9-.058c-.31.078-.522.136-.638.174a1.824 1.824 0 0 1 1.015-.377zM5.51 31.48a2.528 2.528 0 0 0 .464-1.16v-.059q.348 0 .232-.406a4.611 4.611 0 0 1 .406-.493q.289-.318.29-.435c.193-.077.29-.193.29-.348a4.515 4.515 0 0 1 1.276-1.018 1.318 1.318 0 0 1 1.16-.087.92.92 0 0 1 .435.957 4.166 4.166 0 0 1-.493 1.653c-.232.078-.319.145-.261.2s.048.165-.029.319q-.174-.116-.29.145t-.232.609a8.445 8.445 0 0 1-1.972 1.914c-.348-.077-.571-.019-.667.174a1.636 1.636 0 0 1-.261.416q-.174-.231-.7.29a7.664 7.664 0 0 1 .352-2.671zm.377 9.106a8.1 8.1 0 0 1-1.74-.7 7.008 7.008 0 0 1-1.131-.754 2.333 2.333 0 0 1-.464-.464 4.93 4.93 0 0 0 1.073.783 9.869 9.869 0 0 0 1.45.667 11.452 11.452 0 0 0 1.595.464 7 7 0 0 0 1.45.174 5.982 5.982 0 0 1-2.233-.17zm8.642-4.06q-.319.406-.2.522a3.261 3.261 0 0 0-.812.58q-.522.465-.522.754a1.784 1.784 0 0 0-.609.2 3.892 3.892 0 0 0-.667.377q.405-.289.667-.464a.709.709 0 0 0 .319-.464q.231.117.754-.406a1.975 1.975 0 0 0 .58-.812l.522-.522a4.837 4.837 0 0 0 .522-.58 6.725 6.725 0 0 1-.554.815z"/>
    <path d="M129.933 26.985a.9.9 0 0 0-.667-.261 1.8 1.8 0 0 0-.812.2 1.361 1.361 0 0 0-.58.493q-.406.928-.783 1.769t-.783 1.653c-.232 0-.368.145-.406.435a3.1 3.1 0 0 1-.174.725q-.232-.057-.232.232a.826.826 0 0 1-.116.464.806.806 0 0 0-.638.725 1.984 1.984 0 0 1-.29.9.718.718 0 0 0-.174.29.735.735 0 0 1-.174.29.274.274 0 0 0-.232.29 1.533 1.533 0 0 0-.087.2.58.58 0 0 1-.145.2 2.678 2.678 0 0 0-.522.58q-.291.406-.522.7l-.348.348a1.594 1.594 0 0 0-.928.406h-.232q-.522-.116.058-2.755a77.708 77.708 0 0 1 2.726-8.555 2.067 2.067 0 0 1 .261-.319q.144-.144.029-.435v-.058q.174-.057.319-.435a2.029 2.029 0 0 0 .145-.725.743.743 0 0 0 .348-.377 1.788 1.788 0 0 0 .145-.522.912.912 0 0 0-.058-.464.244.244 0 0 0-.319-.145.994.994 0 0 0-.725-.232 6.431 6.431 0 0 0-1.131.116.707.707 0 0 0-.783-.087 2.241 2.241 0 0 0-.551.493q-.117-.174-.348-.058a3.052 3.052 0 0 0-.493.319c-.174.136-.339.271-.493.406s-.252.223-.29.261a.31.31 0 0 0-.377.029.667.667 0 0 0-.261.435q-.291-.231-.58.116a2.445 2.445 0 0 0-.406.638 2.971 2.971 0 0 1-1.218.232 1.018 1.018 0 0 0 .116-.29q.522-.7.348-1.1v-.232a.919.919 0 0 0 .232-.348q.057-.174-.232-.232a2.346 2.346 0 0 0-.783-1.769 2.4 2.4 0 0 0-1.74-.551 3.464 3.464 0 0 0-2 .87 5.456 5.456 0 0 0-1.566 2.552q.291-.405.522-.7t.464-.58a6.389 6.389 0 0 0-.609 2.639 2.928 2.928 0 0 0 .783 2.233l.16.16c-.025.056-.046.1-.072.159q-.261.609-.609 1.305-.174 0-.174.348a.489.489 0 0 0-.2.232.319.319 0 0 0-.029.29.515.515 0 0 0-.145.29.525.525 0 0 1-.145.29 1.8 1.8 0 0 0-.58 1.1q-.117-.057-.435.493a5.188 5.188 0 0 0-.435.9l-.058.058c-.078-.038-.155 0-.232.116a.711.711 0 0 0-.116.406 7.79 7.79 0 0 1-.725.841l-.725.725a1.317 1.317 0 0 0-.667.348 5.077 5.077 0 0 0-.551.58q-.117-.174-.58.145t-.986.609c-.116.039-.242.078-.377.116a1.37 1.37 0 0 1-.377.058.349.349 0 0 0-.348-.058 1.3 1.3 0 0 0-.406.174h-.348a1.226 1.226 0 0 0-.609-.406 1 1 0 0 0-.551-.058l-.232-.232a2.332 2.332 0 0 0 .725-.261 1.012 1.012 0 0 0 .493-.493.051.051 0 0 0 .058-.058.144.144 0 0 0 .232 0 .911.911 0 0 0 .174-.232 1.432 1.432 0 0 1 .58-.232.887.887 0 0 0 .638-.638q.405-.29.667-.464a.789.789 0 0 0 .319-.58 5.942 5.942 0 0 0 .551-.638q.261-.348.551-.7.116.059.377-.261a1.193 1.193 0 0 0 .261-.783c.27-.077.348-.212.232-.406a2.8 2.8 0 0 0 .232-.319c.116-.174.232-.357.348-.551a1.821 1.821 0 0 0 .232-.58.7.7 0 0 0 0-.406 5.807 5.807 0 0 0 .261-.9c.058-.29.106-.589.145-.9.077 0 .116-.058.116-.174a.4.4 0 0 0-.116-.29v-.058a.435.435 0 0 0 .145-.435c-.02-.212-.068-.319-.145-.319q-.117-.579-.174-.812a.848.848 0 0 0-.145-.87 1.426 1.426 0 0 0-.493-.464.238.238 0 0 0-.058-.261.36.36 0 0 0-.29-.145q-.174-.464-.435-.493a1.182 1.182 0 0 1-.377-.087q-.059-.29-.406-.232a.627.627 0 0 0-.464-.377 1.225 1.225 0 0 0-.58-.029 7.1 7.1 0 0 0-7.6 2.958.359.359 0 0 0-.377.261q-.087.261-.2.551a2.645 2.645 0 0 0-.493.7 4.812 4.812 0 0 0-.319.812.33.33 0 0 1-.116.232.631.631 0 0 0-.174.58 1.17 1.17 0 0 0-.493.754c-.025.131-.023.245-.037.369a.431.431 0 0 0-.05.211 1.122 1.122 0 0 0-.522.232c-.232.155-.31.31-.232.464q-1.044.87-1.624-.058a.39.39 0 0 1-.058-.261.434.434 0 0 0-.116-.319v-.058a.547.547 0 0 0 .087-.435.721.721 0 0 0-.145-.435.237.237 0 0 0 .058-.174 11.675 11.675 0 0 1 .551-2.146q.435-1.275 1.247-3.132.116-.638-.812-.841a6.381 6.381 0 0 0-2.03-.087 6.5 6.5 0 0 0-.609 1.044 16.2 16.2 0 0 0-.725 1.711 15.914 15.914 0 0 0-.58 2 5.464 5.464 0 0 0-.116 1.914 4.529 4.529 0 0 1 .145-2.871 21.382 21.382 0 0 1 1.537-3.8 6.375 6.375 0 0 0-1.218.348 2.724 2.724 0 0 0-.928.58q-.233.465-.406.841t-.348.783q.116-.464.261-.87t.261-.7a3.941 3.941 0 0 0-.58 1.218q-.291.87-.522 1.856a1.118 1.118 0 0 0-.29.667q-.059.435.116.551c-.116.116-.136.31-.058.58a5.32 5.32 0 0 0 .116 1.044 4.715 4.715 0 0 0-.174.667 3.179 3.179 0 0 1-.174.609 3.377 3.377 0 0 0-.7 1.45q-.232.928-.116 1.1a.681.681 0 0 0-.2.406c-.02.155-.029.252-.029.29a2.63 2.63 0 0 0-.348.609 1.991 1.991 0 0 0-.232.783 5.316 5.316 0 0 1-1.218 1.74 1.465 1.465 0 0 1-1.218.348 1.121 1.121 0 0 1-.7-.464.625.625 0 0 0-.029-.551c-.1-.212-.184-.319-.261-.319a.661.661 0 0 0 .232-.464 4.457 4.457 0 0 0 .058-.725 4.076 4.076 0 0 0-.174-1.189q.116-.638.261-1.421a14.649 14.649 0 0 1 .435-1.711c.154-.038.232-.164.232-.377v-.377q.231-.116.319-.638t.145-.986a.938.938 0 0 0 .112-.389q.289-.116.174-.464c.116-.038.212-.174.29-.406a.75.75 0 0 0 0-.58 2.147 2.147 0 0 0 .174-.493 3.483 3.483 0 0 1 .174-.551.374.374 0 0 0 .174-.232 1.111 1.111 0 0 0 .058-.348.553.553 0 0 0 .232-.319.634.634 0 0 0 0-.377c.193 0 .357-.183.493-.551s.067-.609-.2-.725q-.117-.231-.58-.29a9.174 9.174 0 0 0-1.1-.058 1.768 1.768 0 0 0-.87-.029 1.881 1.881 0 0 0-.812.261h-.116a1.851 1.851 0 0 0-.29.029.524.524 0 0 0-.29.145.253.253 0 0 0-.348-.145.615.615 0 0 0-.348.377q-.58-.231-.87.522h-.058v.116q-.465 1.566-.87 3.074a5.582 5.582 0 0 0-.551 1.479 5.447 5.447 0 0 0-.165.965c-.071.151-.137.308-.211.456-.194.078-.29.165-.29.261v.319a.446.446 0 0 0-.058.174.168.168 0 0 1-.058.116 1 1 0 0 0-.2.319c-.058.136-.126.319-.2.551q-.232.406-.435.783t-.377.783q-.291 0-.551.638t-.377.928a.713.713 0 0 0-.261.319.884.884 0 0 0-.087.319 1.383 1.383 0 0 0-.609.7q-.145.406-.2.522c-.116 0-.213.1-.29.29v.058a.644.644 0 0 0-.377.261 3.26 3.26 0 0 0-.261.435 2.119 2.119 0 0 1-1.1.7.228.228 0 0 0-.174-.232.975.975 0 0 0-.29-.058.348.348 0 0 0 .058-.348.42.42 0 0 0-.174-.29 2.667 2.667 0 0 1 .058-.522c.038-.193.077-.406.116-.638a3.088 3.088 0 0 0 .29-.783 3.021 3.021 0 0 0 .058-.493 1.639 1.639 0 0 0 .145-.174c.058-.077.048-.174-.029-.29a1.389 1.389 0 0 0 .348-.522 2.027 2.027 0 0 0 .174-1.1.78.78 0 0 0 .261-.319.616.616 0 0 0 .029-.551c.077 0 .135-.077.174-.232a.531.531 0 0 0 0-.348q.637-1.682 1.392-3.683t1.74-4.437q-.465.117-.841 1.015t-1.073 2.581a29.481 29.481 0 0 1 1.015-2.871q.376-.84.667-.9-.522-.174-.754.058a2.7 2.7 0 0 0-.319-.261.4.4 0 0 0-.435-.029q-.291-.405-1.363-.406a3.92 3.92 0 0 0-2.233.812q-.233-.057-.609.493a1.342 1.342 0 0 0-.261 1.073.472.472 0 0 0-.261.406c-.02.194-.029.348-.029.464q-.117.291-.522 1.334A8.349 8.349 0 0 0 69.571 29c-.2.4-.385.787-.552 1.155a.622.622 0 0 0-.29.58 2.02 2.02 0 0 1-.29.58.7.7 0 0 0-.261.348q-.087.232-.2.522-.059.117-.116.261c-.039.1-.078.184-.116.261a.863.863 0 0 0-.377.406 2.285 2.285 0 0 0-.2.58.336.336 0 0 0-.29.2.86.86 0 0 0-.116.435.85.85 0 0 0-.522.406 1.845 1.845 0 0 0-.29.812 10.782 10.782 0 0 1-1.527 1.615.532.532 0 0 0-.58.145 1.307 1.307 0 0 1-.522.319.429.429 0 0 0-.348-.522c.154-.077.232-.309.232-.7a4.335 4.335 0 0 0-.116-1.044q.231-1.1.667-2.7t1.131-3.625a.755.755 0 0 0 .261-.464 2.48 2.48 0 0 0 .087-.58q.116.117.348-.087c.154-.135.174-.241.058-.319a5.53 5.53 0 0 0 .812-.609q.348-.318.232-.435.231 0 .7-.609a2.407 2.407 0 0 0 .522-1.015 16.42 16.42 0 0 0 2.726-5.452 1.646 1.646 0 0 0 .319-.667 1.1 1.1 0 0 0-.029-.667 1.305 1.305 0 0 0 .232-.464.349.349 0 0 0-.058-.348.939.939 0 0 0 .232-.522.377.377 0 0 0-.232-.464 8.251 8.251 0 0 0 .29-1.044 1.418 1.418 0 0 0-.174-1.218 3.709 3.709 0 0 0 .116-.9.717.717 0 0 0-.232-.609 4.5 4.5 0 0 0-1.334-2.552q.116-.231-.29-.377t-.87-.261a1.853 1.853 0 0 0-.522-.116h-.058q-.232-.405-.7.058-.174-.115-.464.116t-.522.406l-.116.116a.977.977 0 0 0-.725.7 4.141 4.141 0 0 1-.2.754q-.348 0-.174.754a.569.569 0 0 0-.261.58.965.965 0 0 1-.087.58q-.117.465-.232.928t-.232.986c-.078.232-.145.464-.2.7s-.126.484-.2.754a4.247 4.247 0 0 0-.261.464.8.8 0 0 0-.029.638 1.04 1.04 0 0 0-.522.87 2.878 2.878 0 0 0 0 1.16q-.291.987-.522 1.943t-.532 1.888a1.208 1.208 0 0 0-.377.58 4.057 4.057 0 0 0-.2.841q-.058.435-.087.812c-.02.252-.029.435-.029.551-.194.039-.29.213-.29.522a3.824 3.824 0 0 1-.116.928.371.371 0 0 0-.2.406 1.922 1.922 0 0 1-.029.58c-.116 0-.251.223-.406.667s-.154.745 0 .9a2.847 2.847 0 0 0-.174.7q-.348 1.509-.522 2.668c-.154.078-.232.281-.232.609v.783a1.773 1.773 0 0 0 0 .7.307.307 0 0 0-.145.319 2.261 2.261 0 0 0 .145.493q-.348.465.116 1.276a3.641 3.641 0 0 0 .957 2.088 3.139 3.139 0 0 0 1.943.812 1.463 1.463 0 0 0 .493.029 4.2 4.2 0 0 0 .435-.087c.232-.038.483-.087.754-.145s.406-.183.406-.377a.517.517 0 0 0 .377-.029.642.642 0 0 0 .319-.319 2.449 2.449 0 0 0 .7-.493 1.372 1.372 0 0 0 .464-.841 2.557 2.557 0 0 0 .7-.609 1.527 1.527 0 0 0 .232-.551 5.206 5.206 0 0 0 .493-.7 5.054 5.054 0 0 1 .493-.7 9.02 9.02 0 0 0 .058 1.334.381.381 0 0 0-.02.058h-.1a.051.051 0 0 0 .058.058c0 .014.008.012.011.021a.459.459 0 0 0 .018.269.97.97 0 0 0 .2.348q-.116.233.174.7a.846.846 0 0 0 .174.522 1.465 1.465 0 0 0 .348.348.826.826 0 0 1 .145.174.313.313 0 0 0 .145.116c.078.232.174.31.29.232q.232.639.667.58c.29-.038.454-.058.493-.058a2.541 2.541 0 0 0 .319.087 2.981 2.981 0 0 1 .319.087 2.5 2.5 0 0 0 1.392-.174 2.847 2.847 0 0 0 .7-.174.887.887 0 0 0 .638-.58c.038 0 .058-.009.058-.029s.019-.029.058-.029q.116.059.261-.087a.4.4 0 0 0 .145-.261 7.228 7.228 0 0 0 .667-.464 1.335 1.335 0 0 0 .493-.7c.077.078.154.058.232-.058a.291.291 0 0 0 .058-.29 2.521 2.521 0 0 0 .667-.58 1.2 1.2 0 0 0 .435-.928q.474-.652.887-1.32a2.543 2.543 0 0 0-.017.624 1.332 1.332 0 0 0 .29.812 5.929 5.929 0 0 0 .134 1.16q.145.7.435.754 0 .522.348.638a3.522 3.522 0 0 0 1.392 1.189 5.834 5.834 0 0 0 1.8.493 1.874 1.874 0 0 0 1.45 0h.116a1.781 1.781 0 0 0 1.073.058 1.239 1.239 0 0 0 1.015-.58.117.117 0 0 0 .087-.029.119.119 0 0 1 .087-.029 1.062 1.062 0 0 0 .638-.116c.27-.116.386-.27.348-.464a7.431 7.431 0 0 0 1.16-1.044 11.151 11.151 0 0 0 .986-1.276.835.835 0 0 0 .609-.667 2.367 2.367 0 0 1 .2-.609c.193-.077.29-.164.29-.261v-.319a1.008 1.008 0 0 0 .493-.551.917.917 0 0 0 .087-.725q.116-.231.2-.435c.058-.135.125-.3.2-.493a1.268 1.268 0 0 0 .841.261q.609.03.667-.087c.038.078.154.126.348.145a.483.483 0 0 0 .464-.2l.058-.058a1.307 1.307 0 0 0 .928-.174c.158-.072.283-.132.393-.188-.019.268-.045.539-.045.8a6.279 6.279 0 0 0 .406 2.291 8.97 8.97 0 0 1-.174-2.233c.019-.34.052-.678.1-1.014.013-.009.02-.015.03-.023a8.216 8.216 0 0 0-.04 1.443 8.077 8.077 0 0 0 .2 1.537.118.118 0 0 0 .029.087.118.118 0 0 1 .029.087.453.453 0 0 0 .058.174l-.058.174a.555.555 0 0 0 .116.58 6.309 6.309 0 0 0 .464.522 1.344 1.344 0 0 1 .174.29c0 .194.078.29.232.29a.453.453 0 0 0 .145.464 1.724 1.724 0 0 0 .493.29 7.194 7.194 0 0 0 2.7 1.711 7.4 7.4 0 0 0 3.277.377 2.059 2.059 0 0 0 .841.058.979.979 0 0 0 .667-.348h.116a.371.371 0 0 0 .29 0q.174-.057.174-.174a2.656 2.656 0 0 0 .754-.145 5.144 5.144 0 0 0 .9-.377 5.743 5.743 0 0 0 .812-.522 2.166 2.166 0 0 0 .551-.58 2.891 2.891 0 0 0 .986-.609 1.337 1.337 0 0 0 .58-.957 2.7 2.7 0 0 0 .638-.551q.405-.435.348-.667.463-.116.348-.522h.058c.193 0 .251-.1.174-.29a5.9 5.9 0 0 0 .348-.58 1.706 1.706 0 0 0 .406-.464 1.18 1.18 0 0 0 .232-.638 1.061 1.061 0 0 1 .261-.29.307.307 0 0 0 .087-.406 3.106 3.106 0 0 0 .406-.551.735.735 0 0 0 .116-.667c.412-.9.776-1.684 1.1-2.365a5.165 5.165 0 0 0 1.569.219.516.516 0 0 0 .522.232.688.688 0 0 0 .464-.348.927.927 0 0 0 .406-.116 4.75 4.75 0 0 1-.319.812 1.483 1.483 0 0 0-.145.87.649.649 0 0 0-.232.435v.377q-.117.291-.348 1.1a1.777 1.777 0 0 0 0 1.276v.058a2.3 2.3 0 0 0-.261.754q-.087.465.145.58a10.737 10.737 0 0 0 .058 1.943 6.048 6.048 0 0 0 .464 1.74 3.922 3.922 0 0 0 .957 1.334 3.121 3.121 0 0 0 1.595.725 2.875 2.875 0 0 1-.754-.522 4.091 4.091 0 0 0 3.886-1.1 1.618 1.618 0 0 0 .783-.464 1.954 1.954 0 0 0 .551-.754c.27 0 .406-.174.406-.522q.057-.057.29-.261a5.858 5.858 0 0 0 .493-.493 4.558 4.558 0 0 0 .493-.667 2.085 2.085 0 0 0 .29-.841q.174.117.493-.435a1.92 1.92 0 0 0 .319-.841.051.051 0 0 1 .058-.058q.29-.522.551-1.044t.551-.986a2.091 2.091 0 0 0 .58-.754c.116-.27.135-.464.058-.58a1.71 1.71 0 0 1 .319-.348.374.374 0 0 0 .087-.464q.812-1.8.986-2.32a.809.809 0 0 0-.086-.848zM74.139 29.45a5.809 5.809 0 0 1 .551-1.276q-.174.465-.464 1.3t-.406 1.3a7.113 7.113 0 0 1 .319-1.324zm-3.277-14.877c-.039-.212-.116-.338-.232-.377a1.339 1.339 0 0 0 .2-.841 2.168 2.168 0 0 0-.087-.609 1.393 1.393 0 0 1 .2.522 3 3 0 0 1-.087.812q.638.522-.116 2.32a.989.989 0 0 1 .2.348.426.426 0 0 1-.029.406.885.885 0 0 0-.087-.319.646.646 0 0 0-.319-.319 1.728 1.728 0 0 0 .2-.522c.058-.232.106-.473.145-.725a2.137 2.137 0 0 0 .012-.696zm-3.8 4.93q.2-.9.464-1.856t.493-1.769a3.777 3.777 0 0 1 .406-1.044q-.058.174-.29.986t-.49 1.827q-.261 1.016-.493 1.914t-.348 1.247q.055-.405.259-1.305zm-.406 3.045q.435-1.392.87-3.016t.783-3.016q.348-1.392.522-1.856a3.848 3.848 0 0 0-.087.464.32.32 0 0 0 .2.348v.058a.36.36 0 0 0-.116.261.206.206 0 0 0 .116.2 2.167 2.167 0 0 0-.116.29.261.261 0 0 0 .058.29 15.307 15.307 0 0 1-.406 2.088q-.291 1.1-.638 2.088-.406.117-.406.87a2.518 2.518 0 0 0-.319.464 2.178 2.178 0 0 0-.261.87q-.522.87-.87 1.392a11.287 11.287 0 0 0 .671-1.795zm-.9 2.61l.058-.058a10.831 10.831 0 0 0 .667-.928 8.846 8.846 0 0 0 .9-1.682q-.232.522-.58 1.276a5.88 5.88 0 0 1-1.044 1.508zm-4.261 15.283a3.763 3.763 0 0 1-1.073-.87 2.462 2.462 0 0 1-.522-.986 4.007 4.007 0 0 1-.116-.609 3.514 3.514 0 0 0 .551 1.334 2.76 2.76 0 0 0 .9.812 3.854 3.854 0 0 0 1.044.406 4.508 4.508 0 0 0 .986.116 2.7 2.7 0 0 1-1.77-.203zm7.395-4.669c0-.249.022-.533.039-.81 0-.019.015-.042.019-.06s.014-.015.025-.02c-.028.3-.07.604-.083.89zm.063-4.395c-.041.073-.077.146-.12.219a4.08 4.08 0 0 0-.29.58 1.6 1.6 0 0 0-.116.348 1.559 1.559 0 0 0-.377.406q-.261.348-.493.638a4.289 4.289 0 0 1 .377-.7 1.478 1.478 0 0 0 .261-.522 2.793 2.793 0 0 0 .232-.319 5.109 5.109 0 0 0 .319-.551q.144-.29.261-.551c.019-.044.029-.07.044-.105a.347.347 0 0 0 .014.076c-.041.165-.075.321-.112.481zm.54.65c-.08.185-.162.37-.254.555l-.013.022q.026-.153.054-.307c.1-.194.2-.386.278-.556-.022.094-.044.19-.065.286zm1.241-5.017a1.735 1.735 0 0 0-.192.124c.27-.85.532-1.594.785-2.209-.175.59-.374 1.295-.594 2.085zm3.551 10.907a1.616 1.616 0 0 1-.7.638 1.324 1.324 0 0 1-.986.174.631.631 0 0 0-.348-.319.771.771 0 0 0-.464-.029 1.365 1.365 0 0 0 0-1.1q.7.174.406.928c.154.039.28.068.377.087s.145.107.145.261a1.891 1.891 0 0 0 .667-.145 1.851 1.851 0 0 0 .728-.551c.038-.077.106-.2.2-.377a.612.612 0 0 1 .435-.323c-.191.08-.345.332-.461.757zm6.26-3.856q-.059.783-.087 1.537a3.863 3.863 0 0 0 .087 1.163 3.424 3.424 0 0 1-.116-1.1q0-.812.058-1.682t.145-1.537a1.782 1.782 0 0 1 .2-.783q-.059.291-.145.957t-.142 1.445zm1.711-5.307q-.493 1.683-.87 3.654a19.769 19.769 0 0 0-.377 3.712q0 1.74.928 2.2-.522-.057-.841-.841a5.81 5.81 0 0 1-.29-2.233 19.342 19.342 0 0 1 .493-3.6 33.923 33.923 0 0 1 1.568-4.985q-.116.411-.609 2.093zM92.87 30.9a3.041 3.041 0 0 1-.261-1.624 9.862 9.862 0 0 1 .522-2.465 17.159 17.159 0 0 1 1.334-2.987q-.174.348-.638 1.45a14.209 14.209 0 0 0-.754 2.378 7.767 7.767 0 0 0-.2 2.349 1.515 1.515 0 0 0 1.015 1.421.971.971 0 0 1-1.016-.522zm10.846 2.552q-.552.465-1.131.9t-1.566 1.073a.871.871 0 0 1-.174-.232q.927-.522 1.537-.9a11.992 11.992 0 0 0 1.189-.841 6.23 6.23 0 0 0 .87-.812 2.863 2.863 0 0 1-.723.812zm-2.987 1.392l-.058-.058q.057-.057.957-.58a7.74 7.74 0 0 0 1.595-1.218 3.335 3.335 0 0 1-1.16 1.073q-.868.551-1.332.783zm3.8-7.975a1.359 1.359 0 0 1 .928.261 1.253 1.253 0 0 1 .435.928 3.357 3.357 0 0 1-.464 1.682 3.5 3.5 0 0 0 .232-1.856 1.078 1.078 0 0 0-.609-.754 1.432 1.432 0 0 0-.9-.058c-.31.078-.522.136-.638.174a1.824 1.824 0 0 1 1.017-.377zm-3.684 4.611a2.528 2.528 0 0 0 .464-1.16v-.059q.348 0 .232-.406a4.63 4.63 0 0 1 .406-.493q.29-.318.29-.435c.193-.077.29-.193.29-.348a4.514 4.514 0 0 1 1.278-1.018 1.318 1.318 0 0 1 1.16-.087.92.92 0 0 1 .435.957 4.166 4.166 0 0 1-.493 1.653c-.232.078-.319.145-.261.2s.048.165-.029.319q-.174-.116-.29.145t-.232.609a8.445 8.445 0 0 1-1.972 1.914c-.348-.077-.571-.019-.667.174a1.636 1.636 0 0 1-.261.406q-.174-.231-.7.29a7.665 7.665 0 0 1 .35-2.661zm.377 9.106a8.1 8.1 0 0 1-1.74-.7 7.011 7.011 0 0 1-1.131-.754 2.333 2.333 0 0 1-.464-.464 4.926 4.926 0 0 0 1.073.783 9.869 9.869 0 0 0 1.45.667 11.45 11.45 0 0 0 1.595.464 7 7 0 0 0 1.45.174 5.982 5.982 0 0 1-2.231-.17zm8.642-4.06q-.319.406-.2.522a3.261 3.261 0 0 0-.812.58q-.522.465-.522.754a1.784 1.784 0 0 0-.609.2 3.9 3.9 0 0 0-.667.377q.405-.289.667-.464a.709.709 0 0 0 .319-.464q.231.117.754-.406a1.975 1.975 0 0 0 .58-.812l.522-.522a4.839 4.839 0 0 0 .522-.58 6.733 6.733 0 0 1-.552.815zm3.367-9.226a3.643 3.643 0 0 1-.525-1.1 3.94 3.94 0 0 1 .435-2.9 4.625 4.625 0 0 0-.174 3.1 3.635 3.635 0 0 0 .389.727 1.111 1.111 0 0 0-.123.172zm3.158 1.338a3.78 3.78 0 0 1-1.33-.11l.085-.185a3.763 3.763 0 0 0 1.448.063 3.32 3.32 0 0 0 2-1.044 3.137 3.137 0 0 1-2.202 1.276zm3.625 8.613a7.174 7.174 0 0 1 .116-2.349 26.261 26.261 0 0 1 .784-3.041q.522-1.653 1.1-3.161a26.513 26.513 0 0 1 1.131-2.581 6.371 6.371 0 0 1 .841-1.363q-.117.291-.551 1.363t-.986 2.523q-.552 1.45-1.073 3.074t-.841 3.045a9.805 9.805 0 0 0-.29 2.378q.029.957.609 1.131-.694-.062-.839-1.019zM59.959 16.777a2.566 2.566 0 0 0 .058-.551 3 3 0 0 0-.058-.58.806.806 0 0 0-.174-.406q.174-.116.232-.667a6.5 6.5 0 0 0 0-1.218 10.8 10.8 0 0 0-.2-1.334 4.9 4.9 0 0 0-.377-1.131 16.841 16.841 0 0 0-1.16-3.683 14.794 14.794 0 0 0-1.8-2.987q.116-.463-.174-.58l-.58-.232a.792.792 0 0 0-.174-.667 2.044 2.044 0 0 0-.551-.435 3.219 3.219 0 0 0-.609-.261 2.778 2.778 0 0 1-.406-.145c-.039-.27-.252-.406-.638-.406a.606.606 0 0 1-.145-.087.723.723 0 0 0-.145-.087 1.217 1.217 0 0 0-1.045-.725q-.754-.087-1.334-.2l-.116-.061a12.357 12.357 0 0 0-5.452-.058.962.962 0 0 0-.232.029.929.929 0 0 1-.234.029q-.465.117-1.189.29t-1.361.377a7.8 7.8 0 0 0-1.1.435q-.465.233-.406.464a1.5 1.5 0 0 1-.667.2c-.252.02-.358.145-.319.377a2.373 2.373 0 0 1-.725.232 1.208 1.208 0 0 0-.841.812 4.224 4.224 0 0 0-.754.435q-.465.319-.986.754a10.734 10.734 0 0 0-.957.9 3.134 3.134 0 0 0-.609.87l-.116.116a5.165 5.165 0 0 1-.928.783.713.713 0 0 0-.348.667 3.765 3.765 0 0 0-.464.58q-.174.174-.725.841t-1.16 1.45a13.525 13.525 0 0 0-1.015 1.479q-.406.7-.29.87a15.074 15.074 0 0 0-1.044 1.363 1.361 1.361 0 0 0-.29 1.073q-.522.987-1.015 2.059t-.957 2.233v.174l-.029.116c.02 0 .029.02.029.058v.119l.058-.058a.339.339 0 0 0-.058.232.164.164 0 0 1-.058.116l.174-.232-.176.342a.233.233 0 0 0 .174-.058.166.166 0 0 0 .116-.058v.348c0 .039.009.058.029.058s.029.02.029.058v.058h.116c.038 0 .077-.038.116-.116q.29-.522.783-1.537a16.867 16.867 0 0 1 .9-1.653q-.117.291-.348.783t-.465 1.017q-.232.522-.435.986a4.814 4.814 0 0 0-.261.7v.174c0 .039-.01.058-.029.058s-.029.02-.029.058l-.058.058.058.058v.058c0-.038.038-.1.116-.174a.168.168 0 0 1 .116-.058.466.466 0 0 0-.058.2c0 .058-.039.107-.116.145l.406-.116a.488.488 0 0 1-.232.2.981.981 0 0 0-.232.145.389.389 0 0 0 .261.029 1.248 1.248 0 0 1 .2-.029l-.174.058a.33.33 0 0 0 .116.232q.116.117.174.174l.116-.116a.168.168 0 0 0 .058-.116.118.118 0 0 1-.029.087.118.118 0 0 0-.029.087v.116a.254.254 0 0 0 .174.145.753.753 0 0 0 .174.029l.174-.174a.236.236 0 0 0-.058.174.168.168 0 0 1-.058.116q.231 0 .348-.348.405-.986 1.044-2.523a15.964 15.964 0 0 1 1.276-2.523q-.291.7-.609 1.537t-.58 1.566q-.261.726-.493 1.334a6.272 6.272 0 0 0-.29.9.115.115 0 0 0 .029.087.121.121 0 0 1 .029.087v.232a1.373 1.373 0 0 0 .174-.29c.038.039.048.126.029.261a2.335 2.335 0 0 0-.029.261.051.051 0 0 1 .058-.058.168.168 0 0 0 .116-.058.675.675 0 0 0 .116-.174.361.361 0 0 1-.058.2.19.19 0 0 0 0 .2.168.168 0 0 1 .116-.058.168.168 0 0 0 .116-.058c-.039.039-.058.068-.058.087s-.02.049-.058.087a.168.168 0 0 0-.058.116.122.122 0 0 1 .087.029c.019.02.067.029.145.029a.233.233 0 0 0 .174.058.437.437 0 0 1 .145-.174c.058-.038.087-.077.087-.116v.174a.168.168 0 0 1-.058.116.391.391 0 0 0 .2.087 1.147 1.147 0 0 0 .2.029c.077 0 .116-.029.116-.087a.2.2 0 0 1 .058-.145v.406c.038 0 .077-.077.116-.232a1.611 1.611 0 0 0 .058-.348.622.622 0 0 0 .029.2.651.651 0 0 1 .029.2v.174a.939.939 0 0 0 .174-.58 41.888 41.888 0 0 1 2.153-5.958 15.72 15.72 0 0 1 2.378-3.712 19.685 19.685 0 0 0-1.856 3.016 28.454 28.454 0 0 0-1.334 3.074q-.522 1.45-.783 2.465a7.7 7.7 0 0 0-.261 1.247q.174-.464.377-1.1t.377-1.1a16.216 16.216 0 0 0-.377 1.624q-.146.813-.261 1.624-.348.174-.29.87a3.655 3.655 0 0 1-.058 1.16 1.057 1.057 0 0 0-.29.783 1.212 1.212 0 0 0 .174.725 4 4 0 0 0-.319 2.059 8.244 8.244 0 0 1 .145 1.189.866.866 0 0 0-.232.812 1.637 1.637 0 0 0 .29.87 5.716 5.716 0 0 0-.029 2.494 2.619 2.619 0 0 0 .549 1.269q.116.465.261.9t.261.9v.812c0 .194.154.329.464.406a.492.492 0 0 1 .058.406q-.059.232.232.232a3.538 3.538 0 0 0 .29 1.16q.29.753.87.754a.578.578 0 0 0 .522.7h.058a3.275 3.275 0 0 0 .2.551 2.4 2.4 0 0 0 .406.609 2.229 2.229 0 0 0 .678.49 1.638 1.638 0 0 0 .928.145 1.015 1.015 0 0 0 .667.754 4.9 4.9 0 0 0 1.363.406 6.616 6.616 0 0 0 1.508.058 2.382 2.382 0 0 0 1.1-.29.99.99 0 0 0 1.506-.293 1.893 1.893 0 0 0 .754-.058 6.776 6.776 0 0 0 1.218-.377 8.988 8.988 0 0 0 1.218-.609 1.758 1.758 0 0 0 .754-.754 1.98 1.98 0 0 0 1.015-.406 5.982 5.982 0 0 0 1.421-1.624.944.944 0 0 0 .812-.377 2.062 2.062 0 0 0 .522-1.015 2.212 2.212 0 0 0 .725-.493 9.854 9.854 0 0 0 1.044-1.1 10.854 10.854 0 0 0 1.073-1.595 8.835 8.835 0 0 0 .812-1.972 44.622 44.622 0 0 0 2.46-5.19 56.148 56.148 0 0 0 2.059-6.235 32.159 32.159 0 0 0 1.218-6.96.387.387 0 0 0 .237-.319zm-28.739-3.6q-.319.552-.7 1.247t-.725 1.305a9.11 9.11 0 0 1-.522.841 17.426 17.426 0 0 1 1.3-2.552 14.93 14.93 0 0 1 1.073-1.566q-.108.178-.426.729zm19.053 19.057q-.291.639-.609 1.218t-.609 1.16a4.018 4.018 0 0 0-.841 1.189q-.435.841-.551 1.073c-.31-.038-.484.087-.522.377a1.445 1.445 0 0 1-.29.725.442.442 0 0 0-.435.145 2.553 2.553 0 0 0-.377.493c-.116.194-.223.387-.319.58l-.2.406q-.174-.115-.754.232a8.782 8.782 0 0 0-1.189.87q-.609.522-1.1.957a4.949 4.949 0 0 1-.609.493.57.57 0 0 0-.609 0c-.252.116-.435.193-.551.232-.078-.271-.232-.4-.464-.377a2.173 2.173 0 0 0-.638.145c0-.232-.165-.387-.493-.464a1.819 1.819 0 0 1-.957-.7 8.6 8.6 0 0 1-1.223-3.327 22.151 22.151 0 0 1-.174-5.481 8.033 8.033 0 0 0 .174 1.131q.116.493.232.841 0-1.8.174-3.828t.493-4.06q.318-2.03.725-4t.928-3.712a11.28 11.28 0 0 1 .7-1.769q.348-.666.464-.957.348-.638.116-.928a.537.537 0 0 0-.464-.116.563.563 0 0 0-.348.232 1.771 1.771 0 0 0-1.044-.377.828.828 0 0 0-.986.551q-.174.406-.609 1.566a28.8 28.8 0 0 0-.87 2.842q-.435 1.683-.812 3.741a42.187 42.187 0 0 0-.551 4.205 33.264 33.264 0 0 1 .609-5.887 42.387 42.387 0 0 1 1.711-6.467q-.406-.174-.609 0a.836.836 0 0 0-.261.522 1.3 1.3 0 0 0-.783 0 2.231 2.231 0 0 0-1.015.522q.463-.753.9-1.421t.9-1.305q.463-.057.87-.812a8.8 8.8 0 0 1 .87-1.334q.927-.231.928-.928a6.238 6.238 0 0 1 .9-.667q.666-.435.725-.783a19.855 19.855 0 0 0 1.762-1.021 5.947 5.947 0 0 0 1.247-.957 1.322 1.322 0 0 0 .464.029c.116-.019.212-.145.29-.377a2.367 2.367 0 0 0 1.363-.232q.84-.348 1.3-.522a6.031 6.031 0 0 1 3.538.7 2.323 2.323 0 0 1 .58.493 1.283 1.283 0 0 0 .638.435c0 .271.154.426.464.464a8.229 8.229 0 0 0 .377 1.1 3.4 3.4 0 0 0 .9 1.218.236.236 0 0 1-.087.145.451.451 0 0 0-.087.319 2.3 2.3 0 0 0 .145.667 5.1 5.1 0 0 0 .609 1.131.937.937 0 0 0-.145.551q-.03.435.261.551a21.437 21.437 0 0 1-.029 4 33.358 33.358 0 0 1-.841 4.814q-.929 2.088-1.189 2.9a1.649 1.649 0 0 0 .029 1.334 1.165 1.165 0 0 0-.493.377q-.2.261.087.725-.117.174-.406.638a9.061 9.061 0 0 0-.522.957 5.208 5.208 0 0 0-.348.957c-.078.31-.058.522.058.638a2.278 2.278 0 0 0-.609.609.445.445 0 0 0 .091.609zm-13.514-1.8q0-1.334.116-2.9t.319-3.045q.2-1.479.464-2.668a9.78 9.78 0 0 1 .493-1.711q-.059.174-.232 1.16t-.406 2.436q-.232 1.45-.435 3.219t-.319 3.511zm19.517-1.073q-.32.9-.754 1.943t-.957 2.057a6.363 6.363 0 0 1-1.1 1.6 4.187 4.187 0 0 1-.464 1.972 9.274 9.274 0 0 1-2.668 3.248 14.628 14.628 0 0 0 1.073-1.363 13.716 13.716 0 0 0 .957-1.566 12.319 12.319 0 0 0 .638-1.421 2.118 2.118 0 0 0 .174-.986 4.971 4.971 0 0 0 .9-1.276q.551-.986 1.1-2.117t1.015-2.117q.464-.986.58-1.334-.175.46-.494 1.36zm2.581-12.267a4.061 4.061 0 0 0-.232 1.247q-.058.842-.174 1.537 0-.812-.029-1.624a3.6 3.6 0 0 0-.2-1.218 2.194 2.194 0 0 0 .261-1.1 1.79 1.79 0 0 0-.2-.812 2.232 2.232 0 0 0 .029-.725q-.03-.609-.087-1.276a10.41 10.41 0 0 0-.174-1.218 1.128 1.128 0 0 0-.29-.667 6.547 6.547 0 0 1-.087-.9 3.551 3.551 0 0 0-.2-1.073q.174.465.406 1.044a2.465 2.465 0 0 0 .406.754c0 .078.019.319.058.725s.087.841.145 1.3.125.89.2 1.276.154.58.232.58a3.86 3.86 0 0 0-.176 1.017 2.44 2.44 0 0 0 .112 1.135zM25.621 37.57a.946.946 0 0 0-.7.232q-.581.117-1.218.2a10.45 10.45 0 0 0-1.1.2q-.117.233-.174.348l-.116.232a.174.174 0 0 0 0 .348c0 .039.009.058.029.058s.029.02.029.058c-.078.194-.145.368-.2.522s-.049.252.029.29a.971.971 0 0 0-.232.551c-.039.252.174.357.638.319h.174a.43.43 0 0 0 .319.116c.135 0 .222-.039.261-.116h.232q.29-.057.783-.116c.328-.038.493-.116.493-.232a.944.944 0 0 0 .29-.058q.29-.115.29-.58.116-.348.232-.609a2.641 2.641 0 0 0 .174-.551h.058v-.464a.628.628 0 0 1 .145-.319 1.77 1.77 0 0 0 .2-.348c.038-.1.019-.164-.058-.2s-.269.003-.578.119z"/>
  </g>
</svg>